<svg width="23" height="22" viewBox="0 0 23 22" fill="none" xmlns="http://www.w3.org/2000/svg">
<g clip-path="url(#clip0_3_2790)">
<path d="M2.05617 3.90355C3.2441 3.4069 4.94748 2.87132 6.60387 2.70488C8.38913 2.52501 9.90324 2.78944 10.7811 3.71429V16.7963C9.52606 16.0849 7.93543 15.9869 6.4683 16.1346C4.88439 16.2956 3.28705 16.7534 2.05617 17.2232V3.90355ZM12.1234 3.71429C13.0013 2.78944 14.5154 2.52501 16.3006 2.70488C17.957 2.87132 19.6604 3.4069 20.8483 3.90355V17.2232C19.6161 16.7534 18.0201 16.2943 16.4362 16.1359C14.9677 15.9869 13.3785 16.0836 12.1234 16.7963V3.71429ZM11.4523 2.50085C10.1301 1.36392 8.21329 1.19479 6.4683 1.36929C4.43606 1.57466 2.38503 2.27132 1.10716 2.85253C0.989909 2.90586 0.890481 2.9918 0.820742 3.1001C0.751004 3.20839 0.713903 3.33447 0.713867 3.46328V18.2286C0.713898 18.3409 0.742105 18.4513 0.795905 18.5499C0.849704 18.6485 0.927375 18.732 1.0218 18.7927C1.11623 18.8535 1.2244 18.8896 1.3364 18.8978C1.4484 18.9059 1.56065 18.8858 1.66287 18.8393C2.84678 18.3024 4.75419 17.6567 6.60253 17.4702C8.49383 17.2796 10.0791 17.5869 10.9288 18.6474C10.9916 18.7257 11.0713 18.789 11.1619 18.8325C11.2525 18.8759 11.3518 18.8985 11.4523 18.8985C11.5527 18.8985 11.652 18.8759 11.7426 18.8325C11.8332 18.789 11.9129 18.7257 11.9758 18.6474C12.8254 17.5869 14.4107 17.2796 16.3006 17.4702C18.1503 17.6567 20.0591 18.3024 21.2416 18.8393C21.3439 18.8858 21.4561 18.9059 21.5681 18.8978C21.6801 18.8896 21.7883 18.8535 21.8827 18.7927C21.9771 18.732 22.0548 18.6485 22.1086 18.5499C22.1624 18.4513 22.1906 18.3409 22.1906 18.2286V3.46328C22.1906 3.33447 22.1535 3.20839 22.0838 3.1001C22.014 2.9918 21.9146 2.90586 21.7973 2.85253C20.5195 2.27132 18.4684 1.57466 16.4362 1.36929C14.6912 1.19345 12.7744 1.36392 11.4523 2.50085Z" fill="white"/>
</g>
<defs>
<clipPath id="clip0_3_2790">
<rect width="21.4768" height="21.4768" fill="white" transform="translate(0.713867 0.107422)"/>
</clipPath>
</defs>
</svg>
