<svg width="14" height="12" viewBox="0 0 14 12" fill="none" xmlns="http://www.w3.org/2000/svg">
<path d="M4.99992 0C4.11586 0 3.26802 0.351189 2.6429 0.976311C2.01777 1.60143 1.66659 2.44928 1.66659 3.33333C1.66659 4.21739 2.01777 5.06523 2.6429 5.69036C3.26802 6.31548 4.11586 6.66667 4.99992 6.66667C5.88397 6.66667 6.73182 6.31548 7.35694 5.69036C7.98206 5.06523 8.33325 4.21739 8.33325 3.33333C8.33325 2.44928 7.98206 1.60143 7.35694 0.976311C6.73182 0.351189 5.88397 0 4.99992 0ZM2.99992 3.33333C2.99992 2.8029 3.21063 2.29419 3.58571 1.91912C3.96078 1.54405 4.46949 1.33333 4.99992 1.33333C5.53035 1.33333 6.03906 1.54405 6.41413 1.91912C6.7892 2.29419 6.99992 2.8029 6.99992 3.33333C6.99992 3.86377 6.7892 4.37247 6.41413 4.74755C6.03906 5.12262 5.53035 5.33333 4.99992 5.33333C4.46949 5.33333 3.96078 5.12262 3.58571 4.74755C3.21063 4.37247 2.99992 3.86377 2.99992 3.33333ZM10.2719 3.47867C10.0844 3.38314 9.877 3.33333 9.66658 3.33333V2C10.0876 2.00003 10.5026 2.09974 10.8777 2.29098C11.2528 2.48222 11.5772 2.75955 11.8245 3.10028C12.0718 3.44101 12.235 3.83545 12.3005 4.25133C12.3661 4.6672 12.3323 5.0927 12.2018 5.49299C12.0714 5.89328 11.848 6.25699 11.5499 6.55437C11.2519 6.85174 10.8877 7.07432 10.4871 7.2039C10.0865 7.33347 9.66097 7.36636 9.24524 7.29987C8.82951 7.23337 8.43543 7.06939 8.09525 6.82133L8.88058 5.744C9.02927 5.85221 9.19872 5.92849 9.37831 5.96806C9.55789 6.00762 9.74372 6.00961 9.92411 5.9739C10.1045 5.93819 10.2756 5.86555 10.4265 5.76055C10.5775 5.65555 10.7051 5.52046 10.8013 5.36376C10.8976 5.20707 10.9604 5.03216 10.9857 4.85003C11.0111 4.6679 10.9986 4.48248 10.9489 4.30544C10.8991 4.1284 10.8133 3.96356 10.6968 3.82128C10.5803 3.67899 10.4357 3.56235 10.2719 3.47867ZM12.3319 12C12.3317 11.2932 12.0509 10.6153 11.5511 10.1155C11.0513 9.61571 10.3734 9.33484 9.66658 9.33467V8C10.7274 8.00018 11.7447 8.42166 12.4948 9.17177C13.2449 9.92188 13.6664 10.9392 13.6666 12H12.3319ZM9.66658 12H8.33325C8.33325 11.1159 7.98206 10.2681 7.35694 9.64298C6.73182 9.01786 5.88397 8.66667 4.99992 8.66667C4.11586 8.66667 3.26802 9.01786 2.6429 9.64298C2.01777 10.2681 1.66659 11.1159 1.66659 12H0.333252C0.333252 10.7623 0.824917 9.57534 1.70009 8.70017C2.57526 7.825 3.76224 7.33333 4.99992 7.33333C6.2376 7.33333 7.42458 7.825 8.29975 8.70017C9.17492 9.57534 9.66658 10.7623 9.66658 12Z" fill="#09B451"/>
</svg>
