<svg width="24" height="24" viewBox="0 0 24 24" fill="none" xmlns="http://www.w3.org/2000/svg">
<g clip-path="url(#clip0_3_2520)">
<path d="M10.5428 23.9098C8.40229 23.6323 6.19879 22.7143 4.59379 21.4296C0.980292 18.5466 -0.659958 13.9918 0.277542 9.46859C0.679542 7.51559 1.72654 5.46059 3.06679 3.98009C4.05409 2.86897 5.24471 1.95685 6.57454 1.29284C8.34004 0.398094 10.0275 -0.00390625 12.0195 -0.00390625C13.449 -0.00390625 14.598 0.183594 15.9143 0.632844C17.6435 1.22598 19.2144 2.20606 20.5074 3.49839C21.8004 4.79073 22.7813 6.3612 23.3753 8.09009C24.0788 10.1526 24.207 12.3478 23.7578 14.5236C23.3985 16.2426 22.4723 18.1761 21.3323 19.5741C20.8635 20.1523 19.785 21.1836 19.2188 21.6013C17.5248 22.8595 15.5325 23.655 13.4378 23.9098C12.8205 23.9878 11.1405 23.9841 10.5435 23.9098H10.5428ZM13.8128 22.9063C16.7365 22.4163 19.3459 20.7849 21.0668 18.3711C23.094 15.5233 23.637 11.7028 22.4925 8.37134C22.2233 7.58984 21.555 6.28559 21.0668 5.59784C20.5238 4.82834 19.1798 3.48059 18.4065 2.93759C17.6565 2.40659 16.3793 1.76159 15.5078 1.47659C13.9347 0.953948 12.2642 0.791448 10.6198 1.0011C8.97546 1.21075 7.39921 1.7872 6.00754 2.68784C4.69817 3.54796 3.57891 4.66722 2.71879 5.97659C1.81837 7.36751 1.24204 8.943 1.03239 10.5866C0.822733 12.2302 0.985119 13.8999 1.50754 15.4723C1.79629 16.3431 2.44129 17.6248 2.96854 18.3748C3.51529 19.1443 4.85929 20.4921 5.62879 21.0351C6.32029 21.5196 7.62079 22.1871 8.40229 22.4608C10.1418 23.0518 12.0001 23.2048 13.8128 22.9063ZM9.65629 18.8826C9.09555 18.7981 8.5576 18.6014 8.07454 18.3043C7.64104 18.0268 4.36729 14.8198 4.20754 14.5191C4.02379 14.1756 4.34404 13.5501 4.80154 13.3588L5.01604 13.2688L4.35604 12.5968C3.99304 12.2256 3.64879 11.8311 3.59404 11.7216C3.46504 11.4718 3.46129 10.9363 3.58204 10.6978C3.63304 10.6003 3.75379 10.4518 3.84754 10.3693C4.00804 10.2366 4.02304 10.1893 4.00804 9.85334C3.98854 9.55634 4.01554 9.43934 4.14454 9.21659C4.33204 8.89634 4.71904 8.68109 5.09779 8.67734C5.30854 8.67734 5.36329 8.65034 5.45329 8.49359C5.68804 8.08334 6.35929 7.93484 6.87154 8.18534L7.14904 8.31809L7.28554 8.18534C7.47304 8.01359 7.84804 7.86134 8.09404 7.86134C8.58604 7.86134 9.28129 8.42759 9.28129 8.82584C9.28129 9.30209 8.84779 9.38459 8.41804 8.99009C8.13304 8.72459 7.98829 8.69684 7.87129 8.88434C7.81279 8.97434 7.95304 9.14234 8.79304 9.98984C9.63304 10.8336 9.78529 11.0136 9.78529 11.1733C9.77865 11.2958 9.72652 11.4114 9.63912 11.4974C9.55171 11.5834 9.43533 11.6337 9.31279 11.6383C9.16054 11.6383 8.91079 11.4193 7.75804 10.2711C6.58204 9.09884 6.36754 8.91134 6.27379 8.97059C6.01954 9.13109 6.10579 9.24809 7.48054 10.6266C8.22679 11.3766 8.84029 12.0403 8.84029 12.1033C8.84029 12.2323 8.72329 12.4708 8.62579 12.5331C8.54581 12.5682 8.4588 12.5844 8.37154 12.5803C8.21104 12.5841 7.96504 12.3613 6.65704 11.0571C5.34454 9.75209 5.10979 9.54134 5.01604 9.59984C4.75804 9.76409 4.84429 9.87734 6.34054 11.3811C7.15729 12.1978 7.84054 12.9283 7.86004 13.0063C7.90279 13.1473 7.80904 13.3933 7.68454 13.4788C7.60193 13.514 7.51248 13.5301 7.42279 13.5261C7.26229 13.5261 7.05979 13.3506 5.97754 12.2683C4.93429 11.2251 4.69204 11.0106 4.55929 11.0226C4.18429 11.0653 4.31704 11.2333 6.25429 13.1751C7.93429 14.8588 8.14879 15.0973 8.14879 15.2728C8.15049 15.3373 8.13599 15.4011 8.10665 15.4585C8.0773 15.5159 8.03403 15.565 7.98079 15.6013C7.68004 15.8398 7.56304 15.7851 6.80479 15.0508C6.41779 14.6796 6.01954 14.3203 5.91379 14.2536C5.72254 14.1366 5.23804 14.0856 5.14804 14.1793C5.11654 14.2063 5.83129 14.9608 6.73429 15.8548C8.23804 17.3428 8.40979 17.4958 8.85154 17.7066C9.25849 17.9092 9.70668 18.0153 10.1613 18.0166C10.6159 18.0179 11.0647 17.9144 11.4728 17.7141C12.7343 17.1126 13.434 15.6516 13.0898 14.3271C12.918 13.6671 12.7028 13.3506 11.8358 12.4558C10.836 11.4321 10.605 11.1508 10.359 10.6588C10.0853 10.1083 9.96829 9.57284 9.96829 8.90459C9.96829 8.18159 10.0425 7.85384 10.3628 7.17809C10.6673 6.53384 11.304 5.85809 11.9333 5.51009C13.1678 4.82234 14.793 4.88084 15.972 5.65109C16.2068 5.80334 17.0543 6.60059 18.1088 7.65884C19.6755 9.22934 19.8548 9.43259 19.8548 9.61184C19.8548 10.0378 19.5068 10.5103 19.1205 10.6078C18.9758 10.6468 19.0035 10.6858 19.6598 11.3541C20.0423 11.7411 20.3978 12.1588 20.4525 12.2878C20.6363 12.7296 20.5538 13.1586 20.2178 13.5103C20.046 13.6903 20.0228 13.7526 20.0183 14.1118C20.0145 14.4283 19.9793 14.5611 19.854 14.7411C19.7551 14.8875 19.6227 15.0082 19.4677 15.0931C19.3127 15.1781 19.1397 15.2248 18.963 15.2293C18.7208 15.2293 18.6743 15.2526 18.5528 15.4363C18.279 15.8586 17.568 16.0063 17.1075 15.7333L16.8773 15.5968L16.713 15.7573C16.35 16.1053 15.7635 16.1518 15.3188 15.8668C14.9595 15.6403 14.694 15.3238 14.694 15.1243C14.694 14.9488 14.9483 14.6593 15.1043 14.6593C15.2528 14.6593 15.4523 14.7763 15.6788 14.9878C15.9053 15.2023 16.101 15.2023 16.1318 14.9841C16.1475 14.8671 15.96 14.6443 15.2018 13.8823C14.4045 13.0776 14.2523 12.8938 14.2523 12.7378C14.2505 12.6508 14.2666 12.5642 14.2995 12.4836C14.3858 12.3546 14.628 12.2646 14.7758 12.3036C14.8538 12.3231 15.5138 12.9328 16.2368 13.6551C16.9635 14.3818 17.6003 14.9751 17.6588 14.9751C17.8193 14.9751 17.9243 14.8146 17.85 14.6781C17.8148 14.6158 17.2013 13.9866 16.4903 13.2756C15.3773 12.1663 15.1973 11.9593 15.1973 11.7951C15.1936 11.7066 15.2098 11.6185 15.2445 11.5371C15.3113 11.4396 15.5453 11.3226 15.678 11.3226C15.7365 11.3226 16.4708 12.0058 17.3108 12.8421C18.8498 14.3736 18.963 14.4591 19.1235 14.2056C19.182 14.1118 18.9713 13.8733 17.6663 12.5646C16.3185 11.2131 16.1393 11.0098 16.1393 10.8343C16.1393 10.7136 16.194 10.5883 16.2803 10.5103C16.5653 10.2411 16.6515 10.2958 18.0383 11.6743C19.3508 12.9831 19.4678 13.0686 19.6283 12.8188C19.6868 12.7251 19.4213 12.4363 17.7923 10.8028C16.0185 9.02159 15.8903 8.87684 15.8903 8.66984C15.8903 8.35709 16.0703 8.20859 16.4175 8.23259C16.4798 8.23634 16.8548 8.55284 17.2418 8.93159C17.6325 9.31034 18.054 9.66584 18.1793 9.72059C18.4253 9.82184 18.7103 9.83759 18.8318 9.75959C18.9488 9.68534 15.7065 6.49409 15.285 6.27134C14.9236 6.07628 14.5261 5.95725 14.117 5.92157C13.7079 5.88589 13.2958 5.93432 12.9061 6.06387C12.5164 6.19342 12.1573 6.40136 11.8509 6.67488C11.5446 6.94841 11.2975 7.28174 11.1248 7.65434C10.9215 8.08784 10.8945 8.21684 10.8668 8.77559C10.8435 9.30284 10.863 9.46709 10.9763 9.80309C11.1795 10.4008 11.355 10.6468 12.2655 11.5768C13.2503 12.5848 13.4378 12.8151 13.6875 13.3543C14.391 14.8543 14.094 16.5891 12.9338 17.7448C12.051 18.6313 10.848 19.0453 9.65629 18.8818V18.8826Z" fill="white"/>
</g>
<defs>
<clipPath id="clip0_3_2520">
<rect width="24" height="24" fill="white"/>
</clipPath>
</defs>
</svg>
