<svg width="29" height="29" viewBox="0 0 29 29" fill="none" xmlns="http://www.w3.org/2000/svg">
<path d="M10.2285 9.40011V5.88583C10.2285 5.26446 10.4753 4.66855 10.9147 4.22918C11.3541 3.7898 11.95 3.54297 12.5713 3.54297H17.2571C17.8784 3.54297 18.4743 3.7898 18.9137 4.22918C19.3531 4.66855 19.5999 5.26446 19.5999 5.88583V9.40011H23.1142C23.7356 9.40011 24.3315 9.64695 24.7708 10.0863C25.2102 10.5257 25.4571 11.1216 25.4571 11.743V22.2858C25.4571 22.9072 25.2102 23.5031 24.7708 23.9425C24.3315 24.3818 23.7356 24.6287 23.1142 24.6287H6.7142C6.09283 24.6287 5.49692 24.3818 5.05754 23.9425C4.61817 23.5031 4.37134 22.9072 4.37134 22.2858V11.743C4.37134 11.1216 4.61817 10.5257 5.05754 10.0863C5.49692 9.64695 6.09283 9.40011 6.7142 9.40011H10.2285ZM6.7142 11.743V22.2858H23.1142V11.743H19.5976V15.2573H17.2571V11.743H12.5713V15.2573H10.2285V11.743H6.7142ZM12.5713 9.40011H17.2571V5.88583H12.5713V9.40011Z" fill="#09B451"/>
</svg>
