<svg width="22" height="22" viewBox="0 0 22 22" fill="none" xmlns="http://www.w3.org/2000/svg">
<path d="M9.60669 21.5036C7.69123 21.2553 5.71939 20.4338 4.28314 19.2841C1.04954 16.7042 -0.418264 12.6283 0.420672 8.58062C0.780408 6.83295 1.71733 4.994 2.91668 3.66915C3.80017 2.67484 4.86562 1.85861 6.05564 1.26442C7.63553 0.46374 9.14561 0.104004 10.9282 0.104004C12.2074 0.104004 13.2356 0.271791 14.4135 0.67381C15.9609 1.20458 17.3667 2.08163 18.5237 3.23809C19.6808 4.39456 20.5585 5.79991 21.0901 7.34705C21.7196 9.19271 21.8344 11.1572 21.4323 13.1042C21.1109 14.6424 20.282 16.3727 19.2618 17.6237C18.8424 18.1411 17.8773 19.064 17.3705 19.4378C15.8546 20.5636 14.0718 21.2756 12.1973 21.5036C11.645 21.5734 10.1409 21.57 9.60669 21.5036ZM12.5329 20.6056C15.1492 20.1671 17.4842 18.7072 19.0243 16.5472C20.8384 13.9988 21.3243 10.58 20.3001 7.59873C20.0592 6.89939 19.4612 5.73226 19.0243 5.11682C18.5383 4.42822 17.3356 3.22216 16.6437 2.73625C15.9725 2.26108 14.8296 1.68389 14.0497 1.42885C12.642 0.961155 11.1471 0.815739 9.67563 1.00335C8.20414 1.19096 6.79361 1.7068 5.54825 2.51276C4.37654 3.28245 3.37495 4.28404 2.60526 5.45575C1.79951 6.70043 1.28377 8.11028 1.09616 9.58109C0.908545 11.0519 1.05386 12.5461 1.52136 13.9532C1.77975 14.7324 2.35694 15.8794 2.82876 16.5505C3.31802 17.2391 4.52072 18.4452 5.20932 18.9311C5.82812 19.3646 6.99189 19.962 7.69123 20.2069C9.24782 20.7358 10.9108 20.8727 12.5329 20.6056ZM8.81339 17.0049C8.31161 16.9292 7.83021 16.7532 7.39794 16.4874C7.01001 16.2391 4.08045 13.3693 3.93749 13.1001C3.77306 12.7928 4.05964 12.233 4.46904 12.0619L4.66099 11.9813L4.07038 11.38C3.74555 11.0478 3.43749 10.6947 3.38849 10.5968C3.27306 10.3733 3.2697 9.89406 3.37776 9.68063C3.42339 9.59338 3.53145 9.4605 3.61534 9.38667C3.75897 9.26788 3.77239 9.22559 3.75897 8.92492C3.74152 8.65914 3.76568 8.55444 3.88112 8.35511C4.0489 8.06853 4.39522 7.87591 4.73415 7.87256C4.92274 7.87256 4.97173 7.84839 5.05227 7.70812C5.26234 7.34101 5.86302 7.20812 6.32142 7.43228L6.56974 7.55108L6.69189 7.43228C6.85968 7.27859 7.19525 7.14235 7.41539 7.14235C7.85566 7.14235 8.47782 7.64906 8.47782 8.00544C8.47782 8.43162 8.08989 8.50545 7.70533 8.15243C7.45029 7.91484 7.32076 7.89001 7.21606 8.05779C7.16371 8.13833 7.28921 8.28867 8.0409 9.04707C8.79259 9.80211 8.92883 9.96319 8.92883 10.1061C8.92289 10.2157 8.87624 10.3191 8.79802 10.3961C8.71981 10.4731 8.61567 10.5181 8.50601 10.5223C8.36976 10.5223 8.14627 10.3263 7.11471 9.29875C6.06235 8.24974 5.8704 8.08195 5.78651 8.13498C5.55899 8.2786 5.63617 8.3833 6.86639 9.61687C7.53418 10.288 8.08318 10.882 8.08318 10.9384C8.08318 11.0538 7.97848 11.2672 7.89123 11.3229C7.81966 11.3544 7.7418 11.3688 7.66371 11.3652C7.52009 11.3686 7.29995 11.1692 6.12947 10.0021C4.95496 8.83431 4.74489 8.64572 4.66099 8.69807C4.43012 8.84505 4.5073 8.94639 5.84624 10.292C6.57712 11.0229 7.18854 11.6766 7.20599 11.7464C7.24425 11.8726 7.16035 12.0927 7.04894 12.1693C6.97501 12.2007 6.89497 12.2151 6.81471 12.2115C6.67108 12.2115 6.48987 12.0545 5.52141 11.086C4.58784 10.1524 4.37106 9.9605 4.25226 9.97124C3.91669 10.0095 4.03548 10.1598 5.76906 11.8974C7.27243 13.4042 7.46438 13.6176 7.46438 13.7746C7.4659 13.8323 7.45293 13.8894 7.42667 13.9408C7.4004 13.9921 7.36168 14.0361 7.31404 14.0686C7.04491 14.282 6.94021 14.233 6.26168 13.576C5.91537 13.2438 5.55899 12.9223 5.46436 12.8625C5.29322 12.7579 4.85965 12.7122 4.77911 12.7961C4.75093 12.8203 5.39053 13.4954 6.1986 14.2955C7.54425 15.627 7.69794 15.7639 8.09325 15.9525C8.45741 16.1339 8.85848 16.2288 9.2653 16.23C9.67211 16.2311 10.0737 16.1385 10.4389 15.9592C11.5678 15.421 12.194 14.1136 11.8859 12.9283C11.7322 12.3377 11.5396 12.0545 10.7638 11.2538C9.86911 10.3377 9.6624 10.086 9.44226 9.64573C9.19729 9.15311 9.09259 8.67391 9.09259 8.07591C9.09259 7.42893 9.15903 7.13563 9.44561 6.53093C9.7181 5.95441 10.2879 5.34971 10.851 5.03829C11.9557 4.42285 13.4101 4.4752 14.4651 5.16447C14.6752 5.30071 15.4336 6.01414 16.3772 6.96114C17.7793 8.36652 17.9397 8.5484 17.9397 8.70881C17.9397 9.09002 17.6283 9.51284 17.2826 9.60009C17.1531 9.63499 17.1779 9.66989 17.7652 10.2679C18.1075 10.6142 18.4256 10.988 18.4746 11.1035C18.639 11.4988 18.5652 11.8827 18.2645 12.1974C18.1108 12.3585 18.09 12.4142 18.086 12.7357C18.0826 13.0189 18.0511 13.1377 17.939 13.2988C17.8505 13.4298 17.7319 13.5378 17.5933 13.6138C17.4546 13.6898 17.2998 13.7316 17.1417 13.7357C16.9249 13.7357 16.8833 13.7565 16.7746 13.921C16.5296 14.2988 15.8933 14.431 15.4813 14.1867L15.2752 14.0646L15.1282 14.2082C14.8034 14.5196 14.2786 14.5612 13.8806 14.3062C13.5591 14.1035 13.3215 13.8203 13.3215 13.6418C13.3215 13.4847 13.549 13.2256 13.6886 13.2256C13.8215 13.2256 14 13.3303 14.2027 13.5196C14.4054 13.7116 14.5806 13.7116 14.6081 13.5162C14.6222 13.4116 14.4544 13.2122 13.7759 12.5303C13.0624 11.8102 12.9262 11.6458 12.9262 11.5062C12.9246 11.4282 12.939 11.3508 12.9685 11.2786C13.0457 11.1632 13.2624 11.0827 13.3947 11.1176C13.4645 11.135 14.0551 11.6807 14.7021 12.327C15.3524 12.9773 15.9222 13.5082 15.9746 13.5082C16.1182 13.5082 16.2121 13.3646 16.1457 13.2424C16.1142 13.1867 15.5652 12.6236 14.9289 11.9874C13.9329 10.9947 13.7718 10.8095 13.7718 10.6625C13.7686 10.5834 13.783 10.5045 13.8141 10.4316C13.8739 10.3444 14.0833 10.2397 14.202 10.2397C14.2544 10.2397 14.9115 10.8511 15.6631 11.5994C17.0403 12.9699 17.1417 13.0464 17.2853 12.8196C17.3377 12.7357 17.1491 12.5223 15.9813 11.3511C14.7752 10.1417 14.6148 9.95983 14.6148 9.80278C14.6148 9.69473 14.6638 9.58264 14.741 9.51285C14.996 9.2719 15.0732 9.3209 16.3142 10.5545C17.4887 11.7256 17.5934 11.8021 17.737 11.5786C17.7893 11.4947 17.5518 11.2364 16.094 9.77459C14.5068 8.18061 14.392 8.05108 14.392 7.86584C14.392 7.58598 14.5531 7.45309 14.8638 7.47456C14.9195 7.47792 15.2551 7.76115 15.6014 8.10008C15.9511 8.43901 16.3282 8.75713 16.4403 8.80612C16.6605 8.89673 16.9155 8.91082 17.0242 8.84102C17.1289 8.77458 14.2276 5.91884 13.8504 5.71951C13.527 5.54496 13.1713 5.43844 12.8051 5.40651C12.439 5.37458 12.0702 5.41791 11.7215 5.53385C11.3728 5.64978 11.0514 5.83586 10.7773 6.08062C10.5032 6.32539 10.282 6.62367 10.1275 6.95711C9.94562 7.34503 9.92146 7.46047 9.89663 7.96048C9.87582 8.43229 9.89327 8.57928 9.99461 8.87995C10.1765 9.41486 10.3335 9.63499 11.1483 10.4672C12.0295 11.3692 12.1973 11.5753 12.4208 12.0578C13.0504 13.4001 12.7846 14.9525 11.7463 15.9867C10.9564 16.78 9.87985 17.1512 8.81339 17.0049Z" fill="white"/>
</svg>
