<svg width="30" height="30" viewBox="0 0 30 30" fill="none" xmlns="http://www.w3.org/2000/svg">
<path fill-rule="evenodd" clip-rule="evenodd" d="M20.9374 21.2498L11.5624 14.9998L20.9374 8.74978C21.0606 8.66771 21.1663 8.56218 21.2486 8.43924C21.331 8.3163 21.3883 8.17834 21.4173 8.03325C21.4463 7.88816 21.4465 7.73877 21.4178 7.59362C21.389 7.44847 21.332 7.3104 21.2499 7.18728C21.1679 7.06417 21.0624 6.95842 20.9394 6.87609C20.8165 6.79376 20.6785 6.73645 20.5334 6.70743C20.3883 6.67841 20.2389 6.67825 20.0938 6.70697C19.9486 6.73568 19.8106 6.79271 19.6874 6.87478L9.05995 13.9598C8.88875 14.0739 8.74838 14.2286 8.6513 14.41C8.55421 14.5914 8.50342 14.794 8.50342 14.9998C8.50342 15.2055 8.55421 15.4081 8.6513 15.5896C8.74838 15.771 8.88875 15.9256 9.05995 16.0398L19.6874 23.1248C19.8106 23.2069 19.9486 23.2639 20.0938 23.2926C20.2389 23.3213 20.3883 23.3212 20.5334 23.2921C20.6785 23.2631 20.8165 23.2058 20.9394 23.1235C21.0624 23.0411 21.1679 22.9354 21.2499 22.8123C21.332 22.6892 21.389 22.5511 21.4178 22.4059C21.4465 22.2608 21.4463 22.1114 21.4173 21.9663C21.3883 21.8212 21.331 21.6833 21.2486 21.5603C21.1663 21.4374 21.0606 21.3319 20.9374 21.2498Z" fill="#09B451"/>
</svg>
