<svg width="114" height="128" viewBox="0 0 114 128" fill="none" xmlns="http://www.w3.org/2000/svg">
<path d="M0.944214 6.27317C0.944214 2.94734 3.64033 0.251221 6.96615 0.251221H107.722C111.048 0.251221 113.744 2.94734 113.744 6.27316V112.861C113.744 121.176 107.004 127.916 98.6894 127.916H6.96615C3.64033 127.916 0.944214 125.22 0.944214 121.894V6.27317Z" fill="white"/>
<path d="M47.1092 63.6913V73.9745C47.1092 75.4016 46.6965 76.5138 45.8711 77.3113C45.0456 78.0948 43.9403 78.4865 42.5553 78.4865C41.1562 78.4865 40.023 78.0808 39.1555 77.2693C38.3021 76.4579 37.8754 75.3246 37.8754 73.8696H40.8134C40.8274 74.4992 40.9743 74.9888 41.2541 75.3386C41.5479 75.6884 41.9677 75.8632 42.5133 75.8632C43.0449 75.8632 43.4507 75.6954 43.7305 75.3596C44.0103 75.0238 44.1502 74.5621 44.1502 73.9745V63.6913H47.1092ZM55.6991 78.5285C54.5798 78.5285 53.5725 78.2836 52.6771 77.794C51.7817 77.2903 51.0752 76.5838 50.5575 75.6744C50.0538 74.765 49.802 73.7157 49.802 72.5265C49.802 71.3373 50.0608 70.288 50.5785 69.3786C51.1101 68.4692 51.8307 67.7696 52.7401 67.28C53.6495 66.7763 54.6638 66.5245 55.783 66.5245C56.9023 66.5245 57.9166 66.7763 58.826 67.28C59.7354 67.7696 60.4489 68.4692 60.9666 69.3786C61.4982 70.288 61.7641 71.3373 61.7641 72.5265C61.7641 73.7157 61.4912 74.765 60.9456 75.6744C60.414 76.5838 59.6864 77.2903 58.7631 77.794C57.8537 78.2836 56.8323 78.5285 55.6991 78.5285ZM55.6991 75.9682C56.2307 75.9682 56.7274 75.8423 57.1891 75.5904C57.6648 75.3246 58.0425 74.9329 58.3223 74.4152C58.6022 73.8976 58.7421 73.268 58.7421 72.5265C58.7421 71.4212 58.4483 70.5748 57.8607 69.9872C57.287 69.3856 56.5805 69.0848 55.7411 69.0848C54.9016 69.0848 54.1951 69.3856 53.6215 69.9872C53.0618 70.5748 52.782 71.4212 52.782 72.5265C52.782 73.6317 53.0548 74.4852 53.6005 75.0868C54.1601 75.6744 54.8596 75.9682 55.6991 75.9682ZM66.8573 68.4132C67.235 67.8536 67.7527 67.3989 68.4102 67.0491C69.0818 66.6993 69.8443 66.5245 70.6977 66.5245C71.6911 66.5245 72.5865 66.7693 73.3839 67.259C74.1954 67.7486 74.832 68.4482 75.2937 69.3576C75.7693 70.253 76.0072 71.2953 76.0072 72.4845C76.0072 73.6737 75.7693 74.73 75.2937 75.6534C74.832 76.5628 74.1954 77.2693 73.3839 77.773C72.5865 78.2766 71.6911 78.5285 70.6977 78.5285C69.8303 78.5285 69.0678 78.3606 68.4102 78.0248C67.7667 77.675 67.249 77.2273 66.8573 76.6817V78.3396H63.9192V62.8099H66.8573V68.4132ZM73.0062 72.4845C73.0062 71.785 72.8593 71.1834 72.5655 70.6797C72.2857 70.162 71.9079 69.7703 71.4322 69.5045C70.9705 69.2387 70.4669 69.1057 69.9212 69.1057C69.3896 69.1057 68.8859 69.2456 68.4102 69.5255C67.9485 69.7913 67.5708 70.183 67.277 70.7007C66.9972 71.2183 66.8573 71.8269 66.8573 72.5265C66.8573 73.226 66.9972 73.8346 67.277 74.3523C67.5708 74.8699 67.9485 75.2686 68.4102 75.5485C68.8859 75.8143 69.3896 75.9472 69.9212 75.9472C70.4669 75.9472 70.9705 75.8073 71.4322 75.5275C71.9079 75.2477 72.2857 74.8489 72.5655 74.3313C72.8593 73.8136 73.0062 73.198 73.0062 72.4845Z" fill="#09B451"/>
<path d="M13.4448 99.4375C12.5307 99.4375 11.6913 99.223 10.9264 98.794C10.1616 98.3649 9.55534 97.7726 9.10764 97.0171C8.65993 96.2523 8.43608 95.3896 8.43608 94.4289C8.43608 93.4775 8.65993 92.6241 9.10764 91.8686C9.55534 91.1037 10.1616 90.5068 10.9264 90.0778C11.6913 89.6487 12.5307 89.4342 13.4448 89.4342C14.3681 89.4342 15.2076 89.6487 15.9631 90.0778C16.7279 90.5068 17.3295 91.1037 17.7679 91.8686C18.2156 92.6241 18.4394 93.4775 18.4394 94.4289C18.4394 95.3896 18.2156 96.2523 17.7679 97.0171C17.3295 97.7726 16.7279 98.3649 15.9631 98.794C15.1983 99.223 14.3588 99.4375 13.4448 99.4375ZM13.4448 97.6887C14.0324 97.6887 14.55 97.5581 14.9977 97.297C15.4454 97.0265 15.7952 96.6441 16.047 96.1497C16.2989 95.6554 16.4248 95.0818 16.4248 94.4289C16.4248 93.776 16.2989 93.207 16.047 92.722C15.7952 92.2277 15.4454 91.8499 14.9977 91.5888C14.55 91.3276 14.0324 91.197 13.4448 91.197C12.8571 91.197 12.3348 91.3276 11.8778 91.5888C11.4301 91.8499 11.0803 92.2277 10.8285 92.722C10.5767 93.207 10.4507 93.776 10.4507 94.4289C10.4507 95.0818 10.5767 95.6554 10.8285 96.1497C11.0803 96.6441 11.4301 97.0265 11.8778 97.297C12.3348 97.5581 12.8571 97.6887 13.4448 97.6887ZM21.8553 92.708C22.1072 92.3536 22.4523 92.0598 22.8907 91.8266C23.3384 91.5841 23.8467 91.4628 24.4156 91.4628C25.0779 91.4628 25.6748 91.6261 26.2065 91.9525C26.7474 92.279 27.1718 92.7453 27.4796 93.3516C27.7967 93.9485 27.9553 94.6434 27.9553 95.4362C27.9553 96.229 27.7967 96.9332 27.4796 97.5488C27.1718 98.1551 26.7474 98.6261 26.2065 98.9619C25.6748 99.2976 25.0779 99.4655 24.4156 99.4655C23.8467 99.4655 23.343 99.3489 22.9046 99.1157C22.4756 98.8826 22.1258 98.5888 21.8553 98.2343V103.033H19.8966V91.5888H21.8553V92.708ZM25.9546 95.4362C25.9546 94.9698 25.8567 94.5688 25.6608 94.233C25.4743 93.8879 25.2224 93.6267 24.9053 93.4495C24.5975 93.2723 24.2617 93.1837 23.898 93.1837C23.5436 93.1837 23.2078 93.277 22.8907 93.4635C22.5829 93.6407 22.331 93.9019 22.1352 94.247C21.9486 94.5921 21.8553 94.9978 21.8553 95.4642C21.8553 95.9305 21.9486 96.3363 22.1352 96.6814C22.331 97.0265 22.5829 97.2923 22.8907 97.4788C23.2078 97.6561 23.5436 97.7447 23.898 97.7447C24.2617 97.7447 24.5975 97.6514 24.9053 97.4648C25.2224 97.2783 25.4743 97.0125 25.6608 96.6674C25.8567 96.3223 25.9546 95.9119 25.9546 95.4362ZM31.3373 92.708C31.5892 92.3536 31.9343 92.0598 32.3726 91.8266C32.8203 91.5841 33.3287 91.4628 33.8976 91.4628C34.5598 91.4628 35.1568 91.6261 35.6884 91.9525C36.2294 92.279 36.6538 92.7453 36.9616 93.3516C37.2787 93.9485 37.4373 94.6434 37.4373 95.4362C37.4373 96.229 37.2787 96.9332 36.9616 97.5488C36.6538 98.1551 36.2294 98.6261 35.6884 98.9619C35.1568 99.2976 34.5598 99.4655 33.8976 99.4655C33.3287 99.4655 32.825 99.3489 32.3866 99.1157C31.9576 98.8826 31.6078 98.5888 31.3373 98.2343V103.033H29.3786V91.5888H31.3373V92.708ZM35.4366 95.4362C35.4366 94.9698 35.3387 94.5688 35.1428 94.233C34.9563 93.8879 34.7044 93.6267 34.3873 93.4495C34.0795 93.2723 33.7437 93.1837 33.38 93.1837C33.0255 93.1837 32.6898 93.277 32.3726 93.4635C32.0648 93.6407 31.813 93.9019 31.6171 94.247C31.4306 94.5921 31.3373 94.9978 31.3373 95.4642C31.3373 95.9305 31.4306 96.3363 31.6171 96.6814C31.813 97.0265 32.0648 97.2923 32.3726 97.4788C32.6898 97.6561 33.0255 97.7447 33.38 97.7447C33.7437 97.7447 34.0795 97.6514 34.3873 97.4648C34.7044 97.2783 34.9563 97.0125 35.1428 96.6674C35.3387 96.3223 35.4366 95.9119 35.4366 95.4362ZM42.3023 99.4655C41.5561 99.4655 40.8846 99.3023 40.2877 98.9758C39.6907 98.6401 39.2197 98.169 38.8746 97.5628C38.5388 96.9565 38.3709 96.257 38.3709 95.4642C38.3709 94.6714 38.5435 93.9718 38.8886 93.3656C39.243 92.7593 39.7234 92.293 40.3296 91.9665C40.9359 91.6307 41.6121 91.4628 42.3583 91.4628C43.1044 91.4628 43.7807 91.6307 44.3869 91.9665C44.9932 92.293 45.4689 92.7593 45.814 93.3656C46.1684 93.9718 46.3456 94.6714 46.3456 95.4642C46.3456 96.257 46.1637 96.9565 45.8 97.5628C45.4456 98.169 44.9605 98.6401 44.345 98.9758C43.7387 99.3023 43.0578 99.4655 42.3023 99.4655ZM42.3023 97.7587C42.6567 97.7587 42.9879 97.6747 43.2957 97.5068C43.6128 97.3296 43.8646 97.0684 44.0512 96.7233C44.2377 96.3782 44.331 95.9585 44.331 95.4642C44.331 94.7273 44.1351 94.163 43.7434 93.7713C43.3609 93.3702 42.8899 93.1697 42.3303 93.1697C41.7707 93.1697 41.2996 93.3702 40.9172 93.7713C40.5442 94.163 40.3576 94.7273 40.3576 95.4642C40.3576 96.201 40.5395 96.77 40.9032 97.171C41.2763 97.5628 41.7427 97.7587 42.3023 97.7587ZM49.7411 92.792C49.9929 92.3816 50.3194 92.0598 50.7205 91.8266C51.1308 91.5934 51.5972 91.4768 52.1195 91.4768V93.5335H51.6019C50.9863 93.5335 50.5199 93.678 50.2028 93.9672C49.895 94.2563 49.7411 94.76 49.7411 95.4782V99.3396H47.7824V91.5888H49.7411V92.792ZM55.7193 93.1977V96.9472C55.7193 97.2083 55.7799 97.3996 55.9012 97.5208C56.0317 97.6327 56.2463 97.6887 56.5447 97.6887H57.4541V99.3396H56.2229C54.572 99.3396 53.7466 98.5375 53.7466 96.9332V93.1977H52.8232V91.5888H53.7466V89.672H55.7193V91.5888H57.4541V93.1977H55.7193ZM66.1801 91.5888V99.3396H64.2074V98.3603C63.9555 98.696 63.6244 98.9619 63.214 99.1577C62.813 99.3443 62.3746 99.4375 61.8989 99.4375C61.2926 99.4375 60.7563 99.3116 60.29 99.0598C59.8236 98.7986 59.4552 98.4209 59.1847 97.9265C58.9236 97.4229 58.793 96.8259 58.793 96.1357V91.5888H60.7517V95.8559C60.7517 96.4715 60.9056 96.9472 61.2134 97.283C61.5212 97.6094 61.9409 97.7726 62.4725 97.7726C63.0135 97.7726 63.4379 97.6094 63.7457 97.283C64.0535 96.9472 64.2074 96.4715 64.2074 95.8559V91.5888H66.1801ZM72.4078 91.4768C73.3312 91.4768 74.0773 91.7706 74.6463 92.3582C75.2153 92.9365 75.4997 93.748 75.4997 94.7926V99.3396H73.541V95.0584C73.541 94.4429 73.3871 93.9718 73.0793 93.6454C72.7715 93.3096 72.3518 93.1417 71.8202 93.1417C71.2792 93.1417 70.8502 93.3096 70.533 93.6454C70.2252 93.9718 70.0713 94.4429 70.0713 95.0584V99.3396H68.1126V91.5888H70.0713V92.5541C70.3325 92.2183 70.6636 91.9572 71.0647 91.7706C71.4751 91.5748 71.9228 91.4768 72.4078 91.4768ZM78.3557 90.6654C78.0106 90.6654 77.7214 90.5581 77.4883 90.3436C77.2644 90.1197 77.1525 89.8446 77.1525 89.5181C77.1525 89.1917 77.2644 88.9212 77.4883 88.7067C77.7214 88.4828 78.0106 88.3709 78.3557 88.3709C78.7008 88.3709 78.9853 88.4828 79.2091 88.7067C79.4423 88.9212 79.5589 89.1917 79.5589 89.5181C79.5589 89.8446 79.4423 90.1197 79.2091 90.3436C78.9853 90.5581 78.7008 90.6654 78.3557 90.6654ZM79.321 91.5888V99.3396H77.3623V91.5888H79.321ZM83.5367 93.1977V96.9472C83.5367 97.2083 83.5973 97.3996 83.7186 97.5208C83.8492 97.6327 84.0637 97.6887 84.3622 97.6887H85.2716V99.3396H84.0404C82.3895 99.3396 81.564 98.5375 81.564 96.9332V93.1977H80.6406V91.5888H81.564V89.672H83.5367V91.5888H85.2716V93.1977H83.5367ZM87.6737 90.6654C87.3286 90.6654 87.0395 90.5581 86.8063 90.3436C86.5824 90.1197 86.4705 89.8446 86.4705 89.5181C86.4705 89.1917 86.5824 88.9212 86.8063 88.7067C87.0395 88.4828 87.3286 88.3709 87.6737 88.3709C88.0188 88.3709 88.3033 88.4828 88.5271 88.7067C88.7603 88.9212 88.8769 89.1917 88.8769 89.5181C88.8769 89.8446 88.7603 90.1197 88.5271 90.3436C88.3033 90.5581 88.0188 90.6654 87.6737 90.6654ZM88.6391 91.5888V99.3396H86.6804V91.5888H88.6391ZM97.7795 95.2963C97.7795 95.5761 97.7608 95.8279 97.7235 96.0518H92.0573C92.1039 96.6114 92.2998 97.0498 92.6449 97.3669C92.99 97.684 93.4144 97.8426 93.918 97.8426C94.6456 97.8426 95.1632 97.5301 95.471 96.9052H97.5836C97.3597 97.6514 96.9307 98.267 96.2965 98.752C95.6622 99.2277 94.8834 99.4655 93.96 99.4655C93.2138 99.4655 92.5423 99.3023 91.9453 98.9758C91.3577 98.6401 90.896 98.169 90.5603 97.5628C90.2338 96.9565 90.0706 96.257 90.0706 95.4642C90.0706 94.662 90.2338 93.9578 90.5603 93.3516C90.8867 92.7453 91.3437 92.279 91.9314 91.9525C92.519 91.6261 93.1952 91.4628 93.96 91.4628C94.6969 91.4628 95.3544 91.6214 95.9327 91.9385C96.5203 92.2556 96.9727 92.708 97.2898 93.2956C97.6162 93.8739 97.7795 94.5408 97.7795 95.2963ZM95.7508 94.7367C95.7415 94.233 95.5596 93.8319 95.2052 93.5335C94.8508 93.2257 94.417 93.0718 93.904 93.0718C93.419 93.0718 93.0086 93.221 92.6729 93.5195C92.3464 93.8086 92.1459 94.2143 92.0713 94.7367H95.7508ZM102.175 99.4655C101.541 99.4655 100.972 99.3536 100.468 99.1297C99.9646 98.8966 99.5636 98.5841 99.2651 98.1924C98.976 97.8006 98.8174 97.3669 98.7894 96.8912H100.762C100.799 97.1897 100.944 97.4369 101.196 97.6327C101.457 97.8286 101.779 97.9265 102.161 97.9265C102.534 97.9265 102.823 97.8519 103.029 97.7027C103.243 97.5535 103.35 97.3622 103.35 97.1291C103.35 96.8772 103.22 96.6907 102.959 96.5694C102.707 96.4389 102.301 96.299 101.741 96.1497C101.163 96.0098 100.687 95.8652 100.314 95.716C99.9507 95.5668 99.6335 95.3383 99.363 95.0305C99.1019 94.7227 98.9713 94.3076 98.9713 93.7853C98.9713 93.3562 99.0926 92.9645 99.3351 92.6101C99.5869 92.2556 99.9413 91.9758 100.398 91.7706C100.865 91.5654 101.41 91.4628 102.035 91.4628C102.959 91.4628 103.695 91.696 104.246 92.1624C104.796 92.6194 105.099 93.2397 105.155 94.0231H103.28C103.252 93.7153 103.122 93.4728 102.889 93.2956C102.665 93.1091 102.362 93.0158 101.979 93.0158C101.625 93.0158 101.35 93.0811 101.154 93.2117C100.967 93.3423 100.874 93.5241 100.874 93.7573C100.874 94.0185 101.005 94.219 101.266 94.3589C101.527 94.4895 101.933 94.6247 102.483 94.7646C103.043 94.9045 103.504 95.0491 103.868 95.1984C104.232 95.3476 104.544 95.5808 104.805 95.8979C105.076 96.2057 105.216 96.6161 105.225 97.1291C105.225 97.5768 105.099 97.9778 104.847 98.3323C104.605 98.6867 104.25 98.9665 103.784 99.1717C103.327 99.3676 102.791 99.4655 102.175 99.4655Z" fill="#333333"/>
<path d="M38.5442 83.3209C48.7457 82.3007 69.8484 80.8725 72.6465 83.3209" stroke="#09B451" stroke-width="1.74884" stroke-linecap="round"/>
<rect x="39.4186" y="10.7441" width="35.8512" height="35.8512" rx="17.9256" fill="#E1FFEE"/>
<path d="M52.7346 25.0847V22.0118C52.7346 21.4684 52.9505 20.9474 53.3347 20.5632C53.7189 20.179 54.2399 19.9631 54.7833 19.9631H58.8805C59.4239 19.9631 59.945 20.179 60.3292 20.5632C60.7133 20.9474 60.9292 21.4684 60.9292 22.0118V25.0847H64.0021C64.5455 25.0847 65.0666 25.3006 65.4507 25.6848C65.8349 26.069 66.0508 26.59 66.0508 27.1334V36.3522C66.0508 36.8956 65.8349 37.4166 65.4507 37.8008C65.0666 38.185 64.5455 38.4009 64.0021 38.4009H49.6617C49.1183 38.4009 48.5973 38.185 48.2131 37.8008C47.8289 37.4166 47.613 36.8956 47.613 36.3522V27.1334C47.613 26.59 47.8289 26.069 48.2131 25.6848C48.5973 25.3006 49.1183 25.0847 49.6617 25.0847H52.7346ZM49.6617 27.1334V36.3522H64.0021V27.1334H60.9271V30.2063H58.8805V27.1334H54.7833V30.2063H52.7346V27.1334H49.6617ZM54.7833 25.0847H58.8805V22.0118H54.7833V25.0847Z" fill="#09B451"/>
</svg>
