<svg width="19" height="17" viewBox="0 0 19 17" fill="none" xmlns="http://www.w3.org/2000/svg">
<path d="M6.42544 0.791992C5.23877 0.791992 4.10071 1.26339 3.26161 2.10249C2.42251 2.94159 1.95111 4.07965 1.95111 5.26632C1.95111 6.45299 2.42251 7.59105 3.26161 8.43015C4.10071 9.26925 5.23877 9.74065 6.42544 9.74065C7.6121 9.74065 8.75016 9.26925 9.58926 8.43015C10.4284 7.59105 10.8998 6.45299 10.8998 5.26632C10.8998 4.07965 10.4284 2.94159 9.58926 2.10249C8.75016 1.26339 7.6121 0.791992 6.42544 0.791992ZM3.74084 5.26632C3.74084 4.55432 4.02368 3.87148 4.52714 3.36802C5.0306 2.86456 5.71344 2.58172 6.42544 2.58172C7.13743 2.58172 7.82027 2.86456 8.32373 3.36802C8.82719 3.87148 9.11003 4.55432 9.11003 5.26632C9.11003 5.97832 8.82719 6.66116 8.32373 7.16462C7.82027 7.66808 7.13743 7.95092 6.42544 7.95092C5.71344 7.95092 5.0306 7.66808 4.52714 7.16462C4.02368 6.66116 3.74084 5.97832 3.74084 5.26632ZM13.502 5.4614C13.2504 5.33317 12.9719 5.26632 12.6895 5.26632V3.47659C13.2546 3.47663 13.8117 3.61047 14.3152 3.86717C14.8186 4.12387 15.2542 4.49614 15.5861 4.95349C15.9181 5.41085 16.137 5.94031 16.225 6.49854C16.3131 7.05677 16.2676 7.62791 16.0925 8.16522C15.9174 8.70253 15.6176 9.19075 15.2175 9.58991C14.8175 9.98907 14.3286 10.2878 13.7909 10.4618C13.2532 10.6357 12.682 10.6798 12.1239 10.5906C11.5659 10.5013 11.0369 10.2812 10.5803 9.94826L11.6344 8.50215C11.834 8.6474 12.0615 8.7498 12.3025 8.80291C12.5436 8.85602 12.793 8.85869 13.0352 8.81075C13.2773 8.76282 13.5069 8.66532 13.7095 8.52437C13.9122 8.38343 14.0835 8.20209 14.2127 7.99176C14.3418 7.78143 14.4261 7.54665 14.4602 7.30217C14.4943 7.0577 14.4774 6.80882 14.4107 6.57118C14.3439 6.33354 14.2288 6.11227 14.0724 5.92129C13.916 5.7303 13.7218 5.57372 13.502 5.4614ZM16.2672 16.8996C16.2669 15.9508 15.8899 15.0409 15.219 14.37C14.5481 13.6991 13.6383 13.3221 12.6895 13.3219V11.5304C14.1134 11.5306 15.479 12.0964 16.4858 13.1032C17.4927 14.1101 18.0585 15.4756 18.0587 16.8996H16.2672ZM12.6895 16.8996H10.8998C10.8998 15.7129 10.4284 14.5748 9.58926 13.7357C8.75016 12.8966 7.6121 12.4252 6.42544 12.4252C5.23877 12.4252 4.10071 12.8966 3.26161 13.7357C2.42251 14.5748 1.95111 15.7129 1.95111 16.8996H0.161377C0.161377 15.2382 0.821338 13.645 1.99608 12.4702C3.17082 11.2955 4.7641 10.6355 6.42544 10.6355C8.08677 10.6355 9.68005 11.2955 10.8548 12.4702C12.0295 13.645 12.6895 15.2382 12.6895 16.8996Z" fill="white"/>
</svg>
